<svg width="26" height="16" viewBox="0 0 26 16" fill="none" xmlns="http://www.w3.org/2000/svg">
<path d="M14.0555 15.1081C14.0555 15.1081 14.5175 15.0577 14.7541 14.8082C14.9707 14.5796 14.9632 14.1482 14.9632 14.1482C14.9632 14.1482 14.9344 12.1338 15.8873 11.8364C16.8264 11.5439 18.0321 13.7844 19.3118 14.646C20.2784 15.2974 21.0121 15.1548 21.0121 15.1548L24.4316 15.1081C24.4316 15.1081 26.2196 15 25.3719 13.6197C25.3018 13.5067 24.8773 12.5984 22.8302 10.7327C20.6853 8.77971 20.9733 9.09558 23.5551 5.71691C25.1278 3.65947 25.7563 2.40338 25.5597 1.86628C25.3732 1.35254 24.2162 1.48896 24.2162 1.48896L20.3673 1.51232C20.3673 1.51232 20.0818 1.47421 19.8702 1.59835C19.6636 1.72003 19.5296 2.00394 19.5296 2.00394C19.5296 2.00394 18.9211 3.59556 18.1085 4.94998C16.3944 7.8063 15.7095 7.95747 15.429 7.78049C14.7767 7.3663 14.9394 6.11881 14.9394 5.23266C14.9394 2.4636 15.3677 1.30952 14.1068 1.01086C13.6886 0.911308 13.3806 0.846168 12.31 0.835106C10.9365 0.821587 9.77454 0.840023 9.11594 1.15589C8.67771 1.36606 8.33964 1.83556 8.54624 1.8626C8.80041 1.89578 9.37638 2.015 9.68189 2.42304C10.0763 2.95031 10.0625 4.13266 10.0625 4.13266C10.0625 4.13266 10.2892 7.39211 9.53289 7.79647C9.01452 8.07423 8.30333 7.50764 6.77452 4.91557C5.99196 3.58819 5.40097 2.1207 5.40097 2.1207C5.40097 2.1207 5.28703 1.84662 5.08294 1.69913C4.83627 1.52092 4.49195 1.46561 4.49195 1.46561L0.834571 1.48896C0.834571 1.48896 0.2849 1.50371 0.0833125 1.73846C-0.0957374 1.94617 0.0695394 2.37757 0.0695394 2.37757C0.0695394 2.37757 2.93309 8.95424 6.17602 12.269C9.14975 15.3072 12.5254 15.1081 12.5254 15.1081H14.0555Z" fill="#FC8080"/>
</svg>
