<svg width="128" height="53" viewBox="0 0 128 53" fill="none" xmlns="http://www.w3.org/2000/svg">
<circle cx="22" cy="30.75" r="22" fill="#FC8080"/>
<circle cx="44" cy="6" r="6" fill="#FC8080"/>
<path d="M23.5625 41.2188C23.3958 41.5104 23.1354 41.7083 22.7812 41.8125C22.4479 41.9167 22.1354 41.8646 21.8438 41.6562C21.2812 41.2396 20.7396 40.8125 20.2188 40.375C19.6979 39.9167 19.1354 39.5104 18.5312 39.1562C17.9896 38.8229 17.4479 38.5208 16.9062 38.25C16.3646 37.9583 15.8438 37.625 15.3438 37.25C14.7396 36.7917 14.1771 36.2917 13.6562 35.75C13.6354 36.7917 13.6458 37.8333 13.6875 38.875C13.7292 39.8958 13.7917 40.9271 13.875 41.9688C13.9167 42.3229 13.8021 42.6146 13.5312 42.8438C13.2604 43.0938 12.9688 43.2188 12.6562 43.2188C12.2812 43.2188 11.9896 43.0938 11.7812 42.8438C11.5729 42.6146 11.4479 42.3229 11.4062 41.9688C11.2812 40.4688 11.2083 39 11.1875 37.5625C11.1667 36.1042 11.1979 34.6354 11.2812 33.1562C11.1146 32.9271 10.9479 32.6979 10.7812 32.4688C10.6146 32.2188 10.4583 31.9688 10.3125 31.7188C10.1875 31.4688 10.1354 31.2292 10.1562 31C10.1979 30.7708 10.2812 30.5729 10.4062 30.4062C10.5521 30.2396 10.7188 30.1042 10.9062 30C11.1146 29.8958 11.3333 29.8542 11.5625 29.875C11.6042 29.3958 11.6562 28.9167 11.7188 28.4375C11.7812 27.9375 11.8438 27.4479 11.9062 26.9688C11.9688 26.6354 12.0208 26.3125 12.0625 26C12.125 25.6667 12.1771 25.3333 12.2188 25C12.2604 24.8333 12.2812 24.6771 12.2812 24.5312C12.3021 24.3854 12.3333 24.2292 12.375 24.0625C12.375 23.9792 12.3958 23.875 12.4375 23.75C12.4583 23.4792 12.4688 23.2188 12.4688 22.9688C12.4688 22.6979 12.4792 22.4271 12.5 22.1562C12.5208 21.8229 12.5521 21.4688 12.5938 21.0938C12.6562 20.6979 12.7396 20.3229 12.8438 19.9688C12.9688 19.5938 13.1354 19.25 13.3438 18.9375C13.5521 18.625 13.8333 18.3854 14.1875 18.2188C14.5208 18.0729 14.8542 17.9896 15.1875 17.9688C15.5417 17.9479 15.8854 17.9688 16.2188 18.0312C16.5729 18.0938 16.9167 18.1875 17.25 18.3125C17.5833 18.4167 17.9062 18.5312 18.2188 18.6562C18.9479 18.9271 19.6667 19.2396 20.375 19.5938C21.1042 19.9271 21.75 20.3646 22.3125 20.9062C22.8542 21.4479 23.3229 22.0938 23.7188 22.8438C24.1146 23.5729 24.2917 24.3333 24.25 25.125C24.2083 25.6042 24.1042 26.0312 23.9375 26.4062C23.7917 26.7604 23.5833 27.125 23.3125 27.5C22.6458 28.4375 21.9271 29.3333 21.1562 30.1875C20.3854 31.0417 19.5625 31.8229 18.6875 32.5312C18.2708 32.8646 17.8125 33.1979 17.3125 33.5312C16.8333 33.8646 16.3229 34.1458 15.7812 34.375C15.9688 34.5417 16.1562 34.7083 16.3438 34.875C16.5312 35.0417 16.7292 35.1875 16.9375 35.3125C17.4792 35.6667 18.0208 36 18.5625 36.3125C19.125 36.6042 19.6667 36.9271 20.1875 37.2812C20.6875 37.6354 21.1771 38.0104 21.6562 38.4062C22.1354 38.8021 22.6146 39.1771 23.0938 39.5312C23.3854 39.7188 23.5729 39.9688 23.6562 40.2812C23.7604 40.5938 23.7292 40.9062 23.5625 41.2188ZM15.125 31.9375C15.625 31.6667 16.0729 31.3854 16.4688 31.0938C16.8854 30.7812 17.2917 30.4479 17.6875 30.0938C18.1042 29.7188 18.5104 29.3229 18.9062 28.9062C19.3021 28.4896 19.6875 28.0729 20.0625 27.6562C20.2083 27.4688 20.3438 27.3021 20.4688 27.1562C20.5938 27.0104 20.7083 26.875 20.8125 26.75C20.9167 26.6042 21.0208 26.4583 21.125 26.3125C21.25 26.1458 21.375 25.9583 21.5 25.75C21.5417 25.6875 21.5833 25.625 21.625 25.5625C21.6667 25.5 21.7083 25.4375 21.75 25.375C21.7708 24.7917 21.6458 24.25 21.375 23.75C21.0208 23.1458 20.5729 22.6562 20.0312 22.2812C19.5104 21.9062 18.9271 21.5938 18.2812 21.3438C17.9062 21.1771 17.5312 21.0312 17.1562 20.9062C16.7812 20.7812 16.3854 20.6667 15.9688 20.5625C15.8646 20.5208 15.7083 20.4792 15.5 20.4375C15.375 20.4792 15.2917 20.5417 15.25 20.625C15.1667 20.8958 15.125 21.0833 15.125 21.1875C15.1042 21.25 15.0729 21.3646 15.0312 21.5312C15.0104 21.7396 14.9896 21.9062 14.9688 22.0312C14.9688 22.1354 14.9688 22.25 14.9688 22.375C14.9062 23.8125 14.75 25.2292 14.5 26.625C14.2708 28.0208 14.0833 29.4375 13.9375 30.875C13.8958 31.1042 13.8646 31.3438 13.8438 31.5938C13.8438 31.8229 13.8333 32.0521 13.8125 32.2812C14 32.3021 14.1042 32.3021 14.125 32.2812C14.3542 32.2396 14.5312 32.1979 14.6562 32.1562C14.8021 32.0938 14.9583 32.0208 15.125 31.9375ZM27.12 23.1875C26.7033 23.0625 26.4533 22.7917 26.37 22.375C26.2658 22.0833 26.2971 21.7708 26.4637 21.4375C26.6304 21.0833 26.8908 20.8854 27.245 20.8438C29.2658 20.5312 31.2867 20.3646 33.3075 20.3438C35.3492 20.3021 37.3908 20.2708 39.4325 20.25C39.8283 20.25 40.1304 20.375 40.3387 20.625C40.5471 20.875 40.6512 21.1562 40.6512 21.4688C40.6512 21.7812 40.5471 22.0729 40.3387 22.3438C40.1304 22.5938 39.8283 22.7188 39.4325 22.7188C37.8075 22.7604 36.1721 22.7812 34.5262 22.7812C32.8804 22.7812 31.2346 22.8646 29.5887 23.0312C29.6304 23.8646 29.6825 24.6979 29.745 25.5312C29.8075 26.3438 29.87 27.1667 29.9325 28C31.5158 27.9167 33.0887 27.8125 34.6512 27.6875C36.2346 27.5625 37.8179 27.5417 39.4012 27.625C39.7971 27.6458 40.0992 27.7917 40.3075 28.0625C40.5158 28.3333 40.62 28.625 40.62 28.9375C40.62 29.25 40.5158 29.5312 40.3075 29.7812C40.0992 30.0312 39.7971 30.1458 39.4012 30.125C37.8387 30.0417 36.2867 30.0625 34.745 30.1875C33.2242 30.3125 31.6825 30.4167 30.12 30.5C30.245 32 30.3596 33.5 30.4637 35C30.5887 36.4792 30.6721 37.9688 30.7137 39.4688C31.4429 39.3021 32.1825 39.1458 32.9325 39C33.6825 38.8333 34.4325 38.7083 35.1825 38.625C35.9325 38.5208 36.6825 38.4688 37.4325 38.4688C38.1825 38.4688 38.9325 38.5312 39.6825 38.6562C40.0158 38.7188 40.2658 38.9167 40.4325 39.25C40.5992 39.5833 40.6408 39.8958 40.5575 40.1875C40.4533 40.5417 40.2554 40.7917 39.9637 40.9375C39.6721 41.0833 39.3492 41.125 38.995 41.0625C38.3283 40.9375 37.6512 40.8958 36.9637 40.9375C36.2762 40.9792 35.5992 41.0521 34.9325 41.1562C34.1617 41.2812 33.3908 41.4271 32.62 41.5938C31.87 41.7604 31.12 41.9375 30.37 42.125C30.0158 42.2083 29.6825 42.1458 29.37 41.9375C29.0783 41.8958 28.8179 41.7812 28.5887 41.5938C28.3596 41.4062 28.245 41.125 28.245 40.75C28.2033 38.9792 28.12 37.2292 27.995 35.5C27.8908 33.7708 27.7658 32.0312 27.62 30.2812C27.3908 30.0521 27.2554 29.7708 27.2137 29.4375C27.1929 29.0833 27.2867 28.7812 27.495 28.5312C27.3283 26.7604 27.2033 24.9792 27.12 23.1875Z" fill="#F6F6F6"/>
<path d="M47.4588 41.375C47.4588 41.7708 47.3233 42.0625 47.0525 42.25C46.8025 42.4583 46.5213 42.5625 46.2088 42.5625C45.8963 42.5625 45.6046 42.4583 45.3338 42.25C45.0838 42.0625 44.9588 41.7708 44.9588 41.375C44.9588 38.0417 45.0004 34.7292 45.0838 31.4375C45.1671 28.125 45.365 24.8125 45.6775 21.5C45.7192 21.1458 45.8442 20.8646 46.0525 20.6562C46.2817 20.4479 46.5213 20.3333 46.7713 20.3125C47.0421 20.2708 47.3025 20.3229 47.5525 20.4688C47.8233 20.5938 48.0213 20.8229 48.1463 21.1562C48.5629 22.3438 48.9483 23.5417 49.3025 24.75C49.6567 25.9375 50.0004 27.1354 50.3338 28.3438C50.6879 29.5521 51.0421 30.7604 51.3963 31.9688C51.7713 33.1562 52.1775 34.3333 52.615 35.5C53.6983 32.7708 54.6775 30.0312 55.5525 27.2812C56.4483 24.5312 57.1671 21.7083 57.7088 18.8125C57.7713 18.5 57.9171 18.2708 58.1463 18.125C58.3754 17.9792 58.6254 17.9062 58.8963 17.9062C59.1879 17.9062 59.4483 17.9792 59.6775 18.125C59.9067 18.2708 60.0525 18.5 60.115 18.8125C60.2817 19.75 60.3338 20.6771 60.2713 21.5938C60.2296 22.4896 60.2088 23.4062 60.2088 24.3438C60.2088 25.3438 60.2608 26.3229 60.365 27.2812C60.49 28.2396 60.5942 29.2083 60.6775 30.1875C60.8442 32.1458 60.9692 34.1042 61.0525 36.0625C61.1358 38.0208 61.2088 39.9792 61.2713 41.9375C61.2713 42.3542 61.1463 42.6562 60.8963 42.8438C60.6463 43.0521 60.365 43.1562 60.0525 43.1562C59.74 43.1562 59.4483 43.0521 59.1775 42.8438C58.9067 42.6562 58.7713 42.3542 58.7713 41.9375C58.7296 39.9792 58.6567 38.0208 58.5525 36.0625C58.4692 34.1042 58.3442 32.1458 58.1775 30.1875C58.1358 29.8333 58.0942 29.4688 58.0525 29.0938C58.0317 28.7188 58.0004 28.3542 57.9588 28C57.3546 29.8958 56.6983 31.7604 55.99 33.5938C55.3025 35.4271 54.5838 37.2604 53.8338 39.0938C53.7296 39.3438 53.5733 39.5625 53.365 39.75C53.1775 39.9167 52.9379 40 52.6463 40C52.4379 40 52.2296 39.9479 52.0213 39.8438C51.8129 39.7188 51.6567 39.5625 51.5525 39.375C50.7192 37.5417 50.0108 35.6771 49.4275 33.7812C48.8442 31.8854 48.2713 29.9688 47.7088 28.0312C47.6046 30.2604 47.5317 32.4896 47.49 34.7188C47.4692 36.9271 47.4588 39.1458 47.4588 41.375ZM65.8913 23.1875C65.4746 23.0625 65.2246 22.7917 65.1413 22.375C65.0371 22.0833 65.0683 21.7708 65.235 21.4375C65.4017 21.0833 65.6621 20.8854 66.0163 20.8438C68.0371 20.5312 70.0579 20.3646 72.0788 20.3438C74.1204 20.3021 76.1621 20.2708 78.2038 20.25C78.5996 20.25 78.9017 20.375 79.11 20.625C79.3183 20.875 79.4225 21.1562 79.4225 21.4688C79.4225 21.7812 79.3183 22.0729 79.11 22.3438C78.9017 22.5938 78.5996 22.7188 78.2038 22.7188C76.5788 22.7604 74.9433 22.7812 73.2975 22.7812C71.6517 22.7812 70.0058 22.8646 68.36 23.0312C68.4017 23.8646 68.4538 24.6979 68.5163 25.5312C68.5788 26.3438 68.6413 27.1667 68.7038 28C70.2871 27.9167 71.86 27.8125 73.4225 27.6875C75.0058 27.5625 76.5892 27.5417 78.1725 27.625C78.5683 27.6458 78.8704 27.7917 79.0788 28.0625C79.2871 28.3333 79.3913 28.625 79.3913 28.9375C79.3913 29.25 79.2871 29.5312 79.0788 29.7812C78.8704 30.0312 78.5683 30.1458 78.1725 30.125C76.61 30.0417 75.0579 30.0625 73.5163 30.1875C71.9954 30.3125 70.4538 30.4167 68.8913 30.5C69.0163 32 69.1308 33.5 69.235 35C69.36 36.4792 69.4433 37.9688 69.485 39.4688C70.2142 39.3021 70.9538 39.1458 71.7038 39C72.4538 38.8333 73.2038 38.7083 73.9538 38.625C74.7038 38.5208 75.4538 38.4688 76.2038 38.4688C76.9538 38.4688 77.7038 38.5312 78.4538 38.6562C78.7871 38.7188 79.0371 38.9167 79.2038 39.25C79.3704 39.5833 79.4121 39.8958 79.3288 40.1875C79.2246 40.5417 79.0267 40.7917 78.735 40.9375C78.4433 41.0833 78.1204 41.125 77.7663 41.0625C77.0996 40.9375 76.4225 40.8958 75.735 40.9375C75.0475 40.9792 74.3704 41.0521 73.7038 41.1562C72.9329 41.2812 72.1621 41.4271 71.3913 41.5938C70.6413 41.7604 69.8913 41.9375 69.1413 42.125C68.7871 42.2083 68.4538 42.1458 68.1413 41.9375C67.8496 41.8958 67.5892 41.7812 67.36 41.5938C67.1308 41.4062 67.0163 41.125 67.0163 40.75C66.9746 38.9792 66.8913 37.2292 66.7663 35.5C66.6621 33.7708 66.5371 32.0312 66.3913 30.2812C66.1621 30.0521 66.0267 29.7708 65.985 29.4375C65.9642 29.0833 66.0579 28.7812 66.2663 28.5312C66.0996 26.7604 65.9746 24.9792 65.8913 23.1875ZM89.2925 33.4375C88.7925 32.9167 88.2613 32.4375 87.6988 32C87.1363 31.5417 86.5738 31.0938 86.0113 30.6562C85.4696 30.1979 84.9383 29.7292 84.4175 29.25C83.8967 28.75 83.4175 28.2083 82.98 27.625C82.5217 27.0208 82.1571 26.3646 81.8863 25.6562C81.6363 24.9271 81.5946 24.1771 81.7613 23.4062C81.9279 22.5729 82.3342 21.8438 82.98 21.2188C83.6258 20.5938 84.3238 20.1042 85.0738 19.75C85.8863 19.3958 86.7092 19.1562 87.5425 19.0312C88.3758 18.8854 89.2196 18.8021 90.0738 18.7812C90.9279 18.7396 91.7821 18.7396 92.6363 18.7812C93.5113 18.8021 94.3758 18.7917 95.23 18.75C95.6258 18.7292 95.9175 18.8438 96.105 19.0938C96.3133 19.3438 96.4175 19.625 96.4175 19.9375C96.4175 20.25 96.3133 20.5417 96.105 20.8125C95.9175 21.0625 95.6258 21.1979 95.23 21.2188C94.6258 21.2604 94.0217 21.2812 93.4175 21.2812C92.8342 21.2604 92.2404 21.2396 91.6363 21.2188C90.8238 21.1979 90.0008 21.2083 89.1675 21.25C88.355 21.2917 87.5529 21.4583 86.7613 21.75C86.4904 21.8542 86.1988 21.9896 85.8863 22.1562C85.5738 22.3021 85.2821 22.4896 85.0113 22.7188C84.7613 22.9479 84.5529 23.1979 84.3863 23.4688C84.2196 23.7396 84.1467 24.0312 84.1675 24.3438C84.1883 24.6354 84.2613 24.9271 84.3863 25.2188C84.5113 25.4896 84.6675 25.7604 84.855 26.0312C85.0633 26.3021 85.2821 26.5625 85.5113 26.8125C85.7404 27.0625 85.9592 27.2917 86.1675 27.5C86.6467 27.9792 87.1467 28.4167 87.6675 28.8125C88.1883 29.2083 88.7092 29.6146 89.23 30.0312C89.7717 30.4688 90.3133 30.9583 90.855 31.5C91.4175 32.0208 91.8967 32.5938 92.2925 33.2188C92.7092 33.8229 93.0113 34.4688 93.1988 35.1562C93.4071 35.8438 93.4383 36.5729 93.2925 37.3438C93.1467 38.0729 92.8654 38.6979 92.4488 39.2188C92.0529 39.7188 91.5738 40.1771 91.0113 40.5938C90.4696 40.9896 89.8863 41.3542 89.2613 41.6875C88.6571 42 88.0738 42.3229 87.5113 42.6562C87.1571 42.8646 86.8238 42.9062 86.5113 42.7812C86.2196 42.6562 85.9904 42.4583 85.8238 42.1875C85.6779 41.9167 85.6154 41.625 85.6363 41.3125C85.6779 40.9792 85.8758 40.7083 86.23 40.5C86.73 40.2083 87.23 39.9375 87.73 39.6875C88.23 39.4375 88.7196 39.1562 89.1988 38.8438C89.6571 38.5521 90.0529 38.2083 90.3863 37.8125C90.7404 37.3958 90.9175 36.9167 90.9175 36.375C90.8967 35.8333 90.7196 35.3125 90.3863 34.8125C90.0738 34.3125 89.7092 33.8542 89.2925 33.4375ZM98.7562 42.25C98.4229 42.25 98.1521 42.1667 97.9437 42C97.7562 41.8125 97.6312 41.6042 97.5687 41.375C97.5062 41.125 97.5062 40.875 97.5687 40.625C97.6521 40.375 97.7979 40.1667 98.0062 40C98.1729 39.2917 98.2146 38.5833 98.1312 37.875C98.0479 37.1458 97.9646 36.4271 97.8812 35.7188C97.7771 34.8438 97.7458 33.9896 97.7875 33.1562C97.8292 32.3021 97.9125 31.4375 98.0375 30.5625C98.1625 29.6875 98.2979 28.8229 98.4437 27.9688C98.5896 27.0938 98.7146 26.2188 98.8187 25.3438C98.9229 24.4062 99.0062 23.4792 99.0687 22.5625C99.1521 21.6458 99.2146 20.7188 99.2562 19.7812C99.2562 19.3854 99.3917 19.0833 99.6625 18.875C99.9333 18.6667 100.225 18.5625 100.537 18.5625C100.85 18.5625 101.131 18.6667 101.381 18.875C101.631 19.0833 101.746 19.3854 101.725 19.7812C101.683 20.7604 101.621 21.7292 101.537 22.6875C101.475 23.6458 101.392 24.625 101.287 25.625C101.183 26.5417 101.048 27.4375 100.881 28.3125C100.735 29.1875 100.6 30.0833 100.475 31C100.35 31.875 100.287 32.7396 100.287 33.5938C100.287 34.4271 100.34 35.2812 100.444 36.1562C100.506 36.7604 100.558 37.3646 100.6 37.9688C100.662 38.5729 100.652 39.1771 100.569 39.7812C102.131 39.8229 103.694 39.9062 105.256 40.0312C106.819 40.1354 108.381 40.2188 109.944 40.2812C110.34 40.3021 110.631 40.4479 110.819 40.7188C111.027 40.9896 111.131 41.2812 111.131 41.5938C111.131 41.9062 111.027 42.1875 110.819 42.4375C110.631 42.6875 110.34 42.8021 109.944 42.7812C108.048 42.6979 106.173 42.5833 104.319 42.4375C102.485 42.3125 100.631 42.25 98.7562 42.25ZM115.033 40.4688C114.553 40.1146 114.116 39.7188 113.72 39.2812C113.345 38.8229 113.001 38.3438 112.689 37.8438C112.397 37.4062 112.116 36.9375 111.845 36.4375C111.574 35.9375 111.335 35.4271 111.126 34.9062C110.918 34.3854 110.751 33.8542 110.626 33.3125C110.522 32.7708 110.491 32.2292 110.533 31.6875C110.595 30.625 110.699 29.5833 110.845 28.5625C111.012 27.5208 111.23 26.5 111.501 25.5C111.585 25.125 111.689 24.7083 111.814 24.25C111.939 23.7917 112.095 23.3542 112.283 22.9375C112.491 22.5 112.73 22.1042 113.001 21.75C113.272 21.3958 113.616 21.125 114.033 20.9375C114.658 20.6667 115.283 20.5729 115.908 20.6562C116.533 20.7188 117.137 20.8854 117.72 21.1562C118.324 21.4271 118.897 21.7604 119.439 22.1562C119.98 22.5312 120.491 22.9062 120.97 23.2812C121.408 23.6354 121.835 24.0104 122.251 24.4062C122.689 24.7812 123.137 25.1458 123.595 25.5C124.137 25.9792 124.678 26.4583 125.22 26.9375C125.783 27.4167 126.241 27.9688 126.595 28.5938C127.012 29.3021 127.251 30.0208 127.314 30.75C127.376 31.4583 127.324 32.1667 127.158 32.875C126.991 33.5625 126.73 34.2396 126.376 34.9062C126.022 35.5729 125.637 36.2188 125.22 36.8438C124.845 37.3854 124.408 37.9583 123.908 38.5625C123.428 39.1667 122.887 39.7188 122.283 40.2188C121.699 40.7188 121.064 41.1146 120.376 41.4062C119.71 41.6979 119.001 41.8021 118.251 41.7188C117.814 41.6562 117.491 41.4896 117.283 41.2188C116.887 41.1562 116.501 41.0729 116.126 40.9688C115.751 40.8646 115.387 40.6979 115.033 40.4688ZM113.033 31.4688C112.991 31.9896 113.012 32.4688 113.095 32.9062C113.199 33.3438 113.366 33.8333 113.595 34.375C113.887 34.9792 114.21 35.5938 114.564 36.2188C114.918 36.8229 115.335 37.375 115.814 37.875C116.23 38.3333 116.71 38.6146 117.251 38.7188C117.605 38.7812 117.949 38.8438 118.283 38.9062C118.616 38.9479 118.949 39.0208 119.283 39.125C119.408 39.0833 119.533 39.0417 119.658 39C119.783 38.9375 119.908 38.8542 120.033 38.75C120.387 38.5208 120.71 38.2708 121.001 38C121.293 37.7292 121.574 37.4479 121.845 37.1562C122.366 36.5729 122.866 35.9375 123.345 35.25C123.845 34.5625 124.241 33.8542 124.533 33.125C124.824 32.3958 124.939 31.7083 124.876 31.0625C124.814 30.4167 124.512 29.7917 123.97 29.1875C123.47 28.625 122.918 28.1146 122.314 27.6562C121.73 27.1771 121.158 26.6979 120.595 26.2188C120.116 25.8021 119.647 25.4062 119.189 25.0312C118.73 24.6562 118.23 24.3021 117.689 23.9688C117.189 23.6354 116.699 23.3854 116.22 23.2188C116.158 23.1979 116.095 23.1875 116.033 23.1875C115.991 23.1667 115.939 23.1458 115.876 23.125L115.408 23.0938C115.241 23.1354 115.137 23.1771 115.095 23.2188C114.949 23.3854 114.866 23.4688 114.845 23.4688C114.699 23.7188 114.605 23.8958 114.564 24C114.522 24.1042 114.46 24.2708 114.376 24.5C114.168 25.1042 113.991 25.7188 113.845 26.3438C113.699 26.9479 113.574 27.5521 113.47 28.1562C113.366 28.7604 113.272 29.3125 113.189 29.8125C113.126 30.3125 113.074 30.8646 113.033 31.4688Z" fill="#0A0A0A"/>
</svg>
