<svg width="24" height="25" viewBox="0 0 24 25" fill="none" xmlns="http://www.w3.org/2000/svg">
<g clip-path="url(#clip0_196_1255)">
<path fill-rule="evenodd" clip-rule="evenodd" d="M1.684 2.559C0 4.243 0 6.9542 0 12.375V13.375C0 18.795 0 21.507 1.684 23.191C3.368 24.875 6.0792 24.875 11.5 24.875H12.5C17.92 24.875 20.632 24.875 22.316 23.191C24 21.507 24 18.7958 24 13.375V12.375C24 6.955 24 4.243 22.316 2.559C20.632 0.875 17.9208 0.875 12.5 0.875H11.5C6.08 0.875 3.368 0.875 1.684 2.559ZM4.75039 8.375H6.49999C6.94719 8.375 7.11519 8.571 7.28319 9.0558C8.13919 11.5486 9.58239 13.7278 10.1752 13.7278C10.3984 13.7278 10.5 13.6254 10.5 13.0598V10.483C10.4599 9.74946 10.2036 9.43215 10.0138 9.19714C9.89664 9.05205 9.80479 8.93833 9.80479 8.7774C9.80479 8.5814 9.97199 8.375 10.2496 8.375H13C13.3712 8.375 13.5 8.5734 13.5 9.0182V12.4854C13.5 12.8558 13.6608 12.9862 13.772 12.9862C13.9944 12.9862 14.18 12.8558 14.588 12.4478C15.8488 11.039 16.7384 8.8702 16.7384 8.8702C16.8496 8.6102 17.0552 8.375 17.5 8.375H19.2496C19.7792 8.375 19.8912 8.6478 19.7792 9.0182C19.5568 10.0382 17.4248 13.0414 17.4248 13.0414C17.2392 13.3382 17.1648 13.4862 17.4248 13.8198C17.5165 13.9483 17.7123 14.1402 17.9361 14.3596C18.165 14.5839 18.4233 14.8371 18.6296 15.0806C19.3816 15.9262 19.948 16.6398 20.1056 17.131C20.2504 17.6246 20 17.875 19.5 17.875H17.7496C17.281 17.875 17.0452 17.6126 16.5353 17.045C16.3192 16.8045 16.0539 16.5092 15.7008 16.1558C14.6616 15.155 14.2176 15.0254 13.9576 15.0254C13.6056 15.0254 13.5 15.1254 13.5 15.6254V17.195C13.5 17.6246 13.3624 17.875 12.2496 17.875C10.396 17.875 8.35839 16.7494 6.91279 14.6726C4.74319 11.6326 4.15039 9.3334 4.15039 8.8702C4.15039 8.6102 4.25039 8.375 4.75039 8.375Z" fill="#2C2C2C"/>
</g>
<defs>
<clipPath id="clip0_196_1255">
<rect width="24" height="24" fill="white" transform="translate(0 0.875)"/>
</clipPath>
</defs>
</svg>
