<svg width="33" height="32" viewBox="0 0 33 32" fill="none" xmlns="http://www.w3.org/2000/svg">
<path d="M9.51323 29.3334H23.4866C27.1666 29.3334 28.6332 27.0801 28.8066 24.3334L29.4999 13.3201C29.6866 10.4401 27.3932 8.00008 24.4999 8.00008C23.6866 8.00008 22.9399 7.53342 22.5666 6.81342L21.6066 4.88008C20.9932 3.66675 19.3932 2.66675 18.0332 2.66675H14.9799C13.6066 2.66675 12.0066 3.66675 11.3932 4.88008L10.4332 6.81342C10.0599 7.53342 9.31323 8.00008 8.4999 8.00008C5.60656 8.00008 3.31323 10.4401 3.4999 13.3201L4.19323 24.3334C4.35323 27.0801 5.83323 29.3334 9.51323 29.3334Z" stroke="#9B9B9B" stroke-width="2" stroke-linecap="round" stroke-linejoin="round"/>
<path d="M14.5 10.6667H18.5" stroke="#9B9B9B" stroke-width="2" stroke-linecap="round" stroke-linejoin="round"/>
<path d="M16.4998 23.9999C18.8865 23.9999 20.8332 22.0533 20.8332 19.6666C20.8332 17.2799 18.8865 15.3333 16.4998 15.3333C14.1132 15.3333 12.1665 17.2799 12.1665 19.6666C12.1665 22.0533 14.1132 23.9999 16.4998 23.9999Z" stroke="#9B9B9B" stroke-width="2" stroke-linecap="round" stroke-linejoin="round"/>
</svg>
