<svg width="24" height="24" viewBox="0 0 24 24" fill="none" xmlns="http://www.w3.org/2000/svg">
<path d="M16.1012 9.3129C16.4918 8.92237 16.4918 8.28921 16.1012 7.89868C15.7107 7.50816 15.0776 7.50816 14.687 7.89868L16.1012 9.3129ZM7.8988 14.6869C7.50828 15.0774 7.50828 15.7106 7.8988 16.1011C8.28933 16.4916 8.92249 16.4916 9.31302 16.1011L7.8988 14.6869ZM14.687 16.1011C15.0776 16.4916 15.7107 16.4916 16.1012 16.1011C16.4918 15.7106 16.4918 15.0774 16.1012 14.6869L14.687 16.1011ZM9.31302 7.89868C8.92249 7.50816 8.28933 7.50816 7.8988 7.89868C7.50828 8.28921 7.50828 8.92237 7.8988 9.3129L9.31302 7.89868ZM20.6 11.9999C20.6 16.7496 16.7497 20.5999 12 20.5999V22.5999C17.8542 22.5999 22.6 17.8541 22.6 11.9999H20.6ZM12 20.5999C7.25038 20.5999 3.40002 16.7496 3.40002 11.9999H1.40002C1.40002 17.8541 6.14581 22.5999 12 22.5999V20.5999ZM3.40002 11.9999C3.40002 7.25025 7.25038 3.3999 12 3.3999V1.3999C6.14581 1.3999 1.40002 6.14568 1.40002 11.9999H3.40002ZM12 3.3999C16.7497 3.3999 20.6 7.25025 20.6 11.9999H22.6C22.6 6.14568 17.8542 1.3999 12 1.3999V3.3999ZM14.687 7.89868L11.2929 11.2928L12.7071 12.707L16.1012 9.3129L14.687 7.89868ZM11.2929 11.2928L7.8988 14.6869L9.31302 16.1011L12.7071 12.707L11.2929 11.2928ZM16.1012 14.6869L12.7071 11.2928L11.2929 12.707L14.687 16.1011L16.1012 14.6869ZM12.7071 11.2928L9.31302 7.89868L7.8988 9.3129L11.2929 12.707L12.7071 11.2928Z" fill="#9B9B9B"/>
</svg>
