<svg width="25" height="25" viewBox="0 0 25 25" fill="none" xmlns="http://www.w3.org/2000/svg">
<g clip-path="url(#clip0_196_1259)">
<path fill-rule="evenodd" clip-rule="evenodd" d="M17.3431 7.423C16.1041 6.2413 14.4506 5.59753 12.7397 5.62399C9.60912 5.62399 6.9503 7.73604 6.00229 10.58C5.49962 12.0704 5.49962 13.6843 6.00228 15.1746H6.00668C6.9591 18.0142 9.61352 20.1263 12.7441 20.1263C14.3602 20.1263 15.7475 19.7129 16.8228 18.9829V18.9799C18.0883 18.1421 18.9525 16.8237 19.2215 15.3334H12.7397V10.7124H24.0585C24.1996 11.5149 24.2658 12.335 24.2658 13.1508C24.2658 16.8006 22.9614 19.8864 20.6918 21.9764L20.6942 21.9782C18.7056 23.8125 15.9762 24.8752 12.7397 24.8752C8.20253 24.8752 4.05335 22.3177 2.01624 18.2656C0.314245 14.8748 0.31425 10.8799 2.01625 7.48917C4.05336 3.43258 8.20253 0.875137 12.7397 0.875137C15.7204 0.839863 18.5997 1.95983 20.7691 3.99695L17.3431 7.423Z" fill="#2C2C2C"/>
</g>
<defs>
<clipPath id="clip0_196_1259">
<rect width="24" height="24" fill="white" transform="translate(0.5 0.875)"/>
</clipPath>
</defs>
</svg>
