<svg width="177" height="26" viewBox="0 0 177 26" fill="none" xmlns="http://www.w3.org/2000/svg">
<path d="M12 22.6C12 22.6 19.513 15.9217 19.513 10.913C19.513 6.7637 16.1493 3.39999 12 3.39999C7.85064 3.39999 4.48694 6.7637 4.48694 10.913C4.48694 15.9217 12 22.6 12 22.6Z" stroke="#122533" stroke-width="2"/>
<path d="M14.4003 10.6001C14.4003 11.9256 13.3258 13.0001 12.0003 13.0001C10.6748 13.0001 9.60029 11.9256 9.60029 10.6001C9.60029 9.27466 10.6748 8.20015 12.0003 8.20015C13.3258 8.20015 14.4003 9.27466 14.4003 10.6001Z" stroke="#122533" stroke-width="2"/>
<path d="M30.124 19V6.4H34.84C35.908 6.4 36.826 6.574 37.594 6.922C38.362 7.258 38.95 7.75 39.358 8.398C39.778 9.034 39.988 9.808 39.988 10.72C39.988 11.608 39.778 12.376 39.358 13.024C38.95 13.66 38.362 14.152 37.594 14.5C36.826 14.848 35.908 15.022 34.84 15.022H30.862L31.456 14.392V19H30.124ZM31.456 14.5L30.862 13.852H34.804C36.064 13.852 37.018 13.582 37.666 13.042C38.326 12.49 38.656 11.716 38.656 10.72C38.656 9.712 38.326 8.932 37.666 8.38C37.018 7.828 36.064 7.552 34.804 7.552H30.862L31.456 6.922V14.5ZM46.2392 19.09C45.3272 19.09 44.5052 18.886 43.7732 18.478C43.0532 18.058 42.4832 17.488 42.0632 16.768C41.6432 16.036 41.4332 15.202 41.4332 14.266C41.4332 13.318 41.6432 12.484 42.0632 11.764C42.4832 11.044 43.0532 10.48 43.7732 10.072C44.4932 9.664 45.3152 9.46 46.2392 9.46C47.1752 9.46 48.0032 9.664 48.7232 10.072C49.4552 10.48 50.0252 11.044 50.4332 11.764C50.8532 12.484 51.0632 13.318 51.0632 14.266C51.0632 15.202 50.8532 16.036 50.4332 16.768C50.0252 17.488 49.4552 18.058 48.7232 18.478C47.9912 18.886 47.1632 19.09 46.2392 19.09ZM46.2392 17.956C46.9232 17.956 47.5292 17.806 48.0572 17.506C48.5852 17.194 48.9992 16.762 49.2992 16.21C49.6112 15.646 49.7672 14.998 49.7672 14.266C49.7672 13.522 49.6112 12.874 49.2992 12.322C48.9992 11.77 48.5852 11.344 48.0572 11.044C47.5292 10.732 46.9292 10.576 46.2572 10.576C45.5852 10.576 44.9852 10.732 44.4572 11.044C43.9292 11.344 43.5092 11.77 43.1972 12.322C42.8852 12.874 42.7292 13.522 42.7292 14.266C42.7292 14.998 42.8852 15.646 43.1972 16.21C43.5092 16.762 43.9292 17.194 44.4572 17.506C44.9852 17.806 45.5792 17.956 46.2392 17.956ZM57.7546 19.09C56.8186 19.09 55.9786 18.886 55.2346 18.478C54.5026 18.058 53.9266 17.488 53.5066 16.768C53.0866 16.036 52.8766 15.202 52.8766 14.266C52.8766 13.318 53.0866 12.484 53.5066 11.764C53.9266 11.044 54.5026 10.48 55.2346 10.072C55.9786 9.664 56.8186 9.46 57.7546 9.46C58.5586 9.46 59.2846 9.616 59.9326 9.928C60.5806 10.24 61.0906 10.708 61.4626 11.332L60.5086 11.98C60.1846 11.5 59.7826 11.146 59.3026 10.918C58.8226 10.69 58.3006 10.576 57.7366 10.576C57.0646 10.576 56.4586 10.732 55.9186 11.044C55.3786 11.344 54.9526 11.77 54.6406 12.322C54.3286 12.874 54.1726 13.522 54.1726 14.266C54.1726 15.01 54.3286 15.658 54.6406 16.21C54.9526 16.762 55.3786 17.194 55.9186 17.506C56.4586 17.806 57.0646 17.956 57.7366 17.956C58.3006 17.956 58.8226 17.842 59.3026 17.614C59.7826 17.386 60.1846 17.038 60.5086 16.57L61.4626 17.218C61.0906 17.83 60.5806 18.298 59.9326 18.622C59.2846 18.934 58.5586 19.09 57.7546 19.09ZM65.5614 19V10.324L65.8854 10.666H61.9794V9.55H70.4214V10.666H66.5154L66.8394 10.324V19H65.5614ZM75.7177 19.09C74.8057 19.09 73.9837 18.886 73.2517 18.478C72.5317 18.058 71.9617 17.488 71.5417 16.768C71.1217 16.036 70.9117 15.202 70.9117 14.266C70.9117 13.318 71.1217 12.484 71.5417 11.764C71.9617 11.044 72.5317 10.48 73.2517 10.072C73.9717 9.664 74.7937 9.46 75.7177 9.46C76.6537 9.46 77.4817 9.664 78.2017 10.072C78.9337 10.48 79.5037 11.044 79.9117 11.764C80.3317 12.484 80.5417 13.318 80.5417 14.266C80.5417 15.202 80.3317 16.036 79.9117 16.768C79.5037 17.488 78.9337 18.058 78.2017 18.478C77.4697 18.886 76.6417 19.09 75.7177 19.09ZM75.7177 17.956C76.4017 17.956 77.0077 17.806 77.5357 17.506C78.0637 17.194 78.4777 16.762 78.7777 16.21C79.0897 15.646 79.2457 14.998 79.2457 14.266C79.2457 13.522 79.0897 12.874 78.7777 12.322C78.4777 11.77 78.0637 11.344 77.5357 11.044C77.0077 10.732 76.4077 10.576 75.7357 10.576C75.0637 10.576 74.4637 10.732 73.9357 11.044C73.4077 11.344 72.9877 11.77 72.6757 12.322C72.3637 12.874 72.2077 13.522 72.2077 14.266C72.2077 14.998 72.3637 15.646 72.6757 16.21C72.9877 16.762 73.4077 17.194 73.9357 17.506C74.4637 17.806 75.0577 17.956 75.7177 17.956ZM83.2731 19V9.55H87.4491C88.5171 9.55 89.3571 9.754 89.9691 10.162C90.5931 10.57 90.9051 11.17 90.9051 11.962C90.9051 12.73 90.6111 13.324 90.0231 13.744C89.4351 14.152 88.6611 14.356 87.7011 14.356L87.9531 13.978C89.0811 13.978 89.9091 14.188 90.4371 14.608C90.9651 15.028 91.2291 15.634 91.2291 16.426C91.2291 17.242 90.9291 17.878 90.3291 18.334C89.7411 18.778 88.8231 19 87.5751 19H83.2731ZM84.5151 17.992H87.5211C88.3251 17.992 88.9311 17.866 89.3391 17.614C89.7591 17.35 89.9691 16.93 89.9691 16.354C89.9691 15.778 89.7831 15.358 89.4111 15.094C89.0391 14.83 88.4511 14.698 87.6471 14.698H84.5151V17.992ZM84.5151 13.744H87.3591C88.0911 13.744 88.6491 13.606 89.0331 13.33C89.4291 13.054 89.6271 12.652 89.6271 12.124C89.6271 11.596 89.4291 11.2 89.0331 10.936C88.6491 10.672 88.0911 10.54 87.3591 10.54H84.5151V13.744ZM93.4863 14.68V13.564H98.2023V14.68H93.4863ZM101.097 19V9.55H102.375V13.726H108.333V9.55H109.611V19H108.333V14.824H102.375V19H101.097ZM119.112 19V16.912L119.058 16.57V13.078C119.058 12.274 118.83 11.656 118.374 11.224C117.93 10.792 117.264 10.576 116.376 10.576C115.764 10.576 115.182 10.678 114.63 10.882C114.078 11.086 113.61 11.356 113.226 11.692L112.65 10.738C113.13 10.33 113.706 10.018 114.378 9.802C115.05 9.574 115.758 9.46 116.502 9.46C117.726 9.46 118.668 9.766 119.328 10.378C120 10.978 120.336 11.896 120.336 13.132V19H119.112ZM115.854 19.09C115.146 19.09 114.528 18.976 114 18.748C113.484 18.508 113.088 18.184 112.812 17.776C112.536 17.356 112.398 16.876 112.398 16.336C112.398 15.844 112.512 15.4 112.74 15.004C112.98 14.596 113.364 14.272 113.892 14.032C114.432 13.78 115.152 13.654 116.052 13.654H119.31V14.608H116.088C115.176 14.608 114.54 14.77 114.18 15.094C113.832 15.418 113.658 15.82 113.658 16.3C113.658 16.84 113.868 17.272 114.288 17.596C114.708 17.92 115.296 18.082 116.052 18.082C116.772 18.082 117.39 17.92 117.906 17.596C118.434 17.26 118.818 16.78 119.058 16.156L119.346 17.038C119.106 17.662 118.686 18.16 118.086 18.532C117.498 18.904 116.754 19.09 115.854 19.09ZM123 14.68V13.564H127.716V14.68H123ZM139.199 18.37V7.552H133.169L133.061 10.612C133.025 11.56 132.965 12.472 132.881 13.348C132.809 14.212 132.689 14.992 132.521 15.688C132.365 16.372 132.149 16.93 131.873 17.362C131.609 17.794 131.261 18.046 130.829 18.118L129.371 17.848C129.851 17.872 130.247 17.698 130.559 17.326C130.883 16.954 131.129 16.432 131.297 15.76C131.477 15.088 131.609 14.302 131.693 13.402C131.777 12.502 131.837 11.53 131.873 10.486L132.017 6.4H140.513V18.37H139.199ZM128.903 21.826L128.921 17.848H142.403V21.826H141.161V19H130.163L130.145 21.826H128.903ZM148.438 19.09C147.526 19.09 146.704 18.886 145.972 18.478C145.252 18.058 144.682 17.488 144.262 16.768C143.842 16.036 143.632 15.202 143.632 14.266C143.632 13.318 143.842 12.484 144.262 11.764C144.682 11.044 145.252 10.48 145.972 10.072C146.692 9.664 147.514 9.46 148.438 9.46C149.374 9.46 150.202 9.664 150.922 10.072C151.654 10.48 152.224 11.044 152.632 11.764C153.052 12.484 153.262 13.318 153.262 14.266C153.262 15.202 153.052 16.036 152.632 16.768C152.224 17.488 151.654 18.058 150.922 18.478C150.19 18.886 149.362 19.09 148.438 19.09ZM148.438 17.956C149.122 17.956 149.728 17.806 150.256 17.506C150.784 17.194 151.198 16.762 151.498 16.21C151.81 15.646 151.966 14.998 151.966 14.266C151.966 13.522 151.81 12.874 151.498 12.322C151.198 11.77 150.784 11.344 150.256 11.044C149.728 10.732 149.128 10.576 148.456 10.576C147.784 10.576 147.184 10.732 146.656 11.044C146.128 11.344 145.708 11.77 145.396 12.322C145.084 12.874 144.928 13.522 144.928 14.266C144.928 14.998 145.084 15.646 145.396 16.21C145.708 16.762 146.128 17.194 146.656 17.506C147.184 17.806 147.778 17.956 148.438 17.956ZM155.994 19V9.55H157.272V13.726H163.23V9.55H164.508V19H163.23V14.824H157.272V19H155.994ZM168.302 22.582C167.858 22.582 167.432 22.51 167.024 22.366C166.628 22.222 166.286 22.006 165.998 21.718L166.592 20.764C166.832 20.992 167.09 21.166 167.366 21.286C167.654 21.418 167.972 21.484 168.32 21.484C168.74 21.484 169.1 21.364 169.4 21.124C169.712 20.896 170.006 20.488 170.282 19.9L170.894 18.514L171.038 18.316L174.926 9.55H176.186L171.452 20.134C171.188 20.746 170.894 21.232 170.57 21.592C170.258 21.952 169.916 22.204 169.544 22.348C169.172 22.504 168.758 22.582 168.302 22.582ZM170.822 19.27L166.466 9.55H167.798L171.65 18.226L170.822 19.27Z" fill="#122533"/>
</svg>
